<?xml version="1.0" encoding="UTF-8" standalone="no" ?>
<!DOCTYPE svg PUBLIC "-//W3C//DTD SVG 1.1//EN" "http://www.w3.org/Graphics/SVG/1.1/DTD/svg11.dtd">
<svg xmlns="http://www.w3.org/2000/svg" xmlns:xlink="http://www.w3.org/1999/xlink" version="1.1" width="1280" height="1024" viewBox="0 0 1280 1024" xml:space="preserve">
<desc>Created with Fabric.js 5.3.0</desc>
<defs>
</defs>
<g transform="matrix(1 0 0 1 640 512)" id="background-logo"  >
<rect style="stroke: none; stroke-width: 0; stroke-dasharray: none; stroke-linecap: butt; stroke-dashoffset: 0; stroke-linejoin: miter; stroke-miterlimit: 4; fill: rgb(255,255,255); fill-opacity: 0; fill-rule: nonzero; opacity: 1;"  paint-order="stroke"  x="-640" y="-512" rx="0" ry="0" width="1280" height="1024" />
</g>
<g transform="matrix(0.8971631868897431 0 0 0.8971631868897431 356.797383205204 404.8835231450787)" id="logo-logo"  >
<g style=""  paint-order="stroke"   >
		<g transform="matrix(0.4231775449533891 0 0 0.4231775449533891 -53.52249885824983 -65.49701299315007)"  >
<linearGradient id="SVGID_231202" gradientUnits="userSpaceOnUse" gradientTransform="matrix(1 0 0 1 -64.2075348 -31.13731765)"  x1="0" y1="0" x2="0" y2="62">
<stop offset="0%" style="stop-color:rgb(245,81,95);stop-opacity: 1"/>
<stop offset="100%" style="stop-color:rgb(159,4,27);stop-opacity: 1"/>
</linearGradient>
<rect style="stroke: none; stroke-width: 0; stroke-dasharray: none; stroke-linecap: butt; stroke-dashoffset: 0; stroke-linejoin: miter; stroke-miterlimit: 4; fill: url(#SVGID_231202); fill-rule: nonzero; opacity: 1;"  paint-order="stroke"  x="-64.2075348" y="-31.13731765" rx="0" ry="0" width="128.4150696" height="62.2746353" />
</g>
		<g transform="matrix(0.4231775449533891 0 0 0.4231775449533891 0 0)"  >
<linearGradient id="SVGID_231203" gradientUnits="userSpaceOnUse" gradientTransform="matrix(1 0 0 1 -190.68517875 -185.91162875)"  x1="0" y1="0" x2="0" y2="372">
<stop offset="0%" style="stop-color:rgb(245,81,95);stop-opacity: 1"/>
<stop offset="100%" style="stop-color:rgb(159,4,27);stop-opacity: 1"/>
</linearGradient>
<polygon style="stroke: none; stroke-width: 1; stroke-dasharray: none; stroke-linecap: butt; stroke-dashoffset: 0; stroke-linejoin: miter; stroke-miterlimit: 4; fill: url(#SVGID_231203); fill-rule: nonzero; opacity: 1;"  paint-order="stroke"  points="190.68517874999998,75.28107454999997 190.68517874999998,-185.91162875000003 62.26998705,-185.91162875000003 62.26998705,-75.28104395000003 -190.68517875,-75.28104395000003 -190.68517875,185.91162874999998 -62.27009775000002,185.91162874999998 -62.27009775000002,75.28107454999997 " />
</g>
		<g transform="matrix(0.4231775449533891 0 0 0.4231775449533891 53.522473023260716 65.49701620929937)"  >
<linearGradient id="SVGID_231204" gradientUnits="userSpaceOnUse" gradientTransform="matrix(1 0 0 1 -64.20759585 -31.13731765)"  x1="0" y1="0" x2="0" y2="62">
<stop offset="0%" style="stop-color:rgb(245,81,95);stop-opacity: 1"/>
<stop offset="100%" style="stop-color:rgb(159,4,27);stop-opacity: 1"/>
</linearGradient>
<rect style="stroke: none; stroke-width: 0; stroke-dasharray: none; stroke-linecap: butt; stroke-dashoffset: 0; stroke-linejoin: miter; stroke-miterlimit: 4; fill: url(#SVGID_231204); fill-rule: nonzero; opacity: 1;"  paint-order="stroke"  x="-64.20759585" y="-31.13731765" rx="0" ry="0" width="128.4151917" height="62.2746353" />
</g>
</g>
</g>
<g transform="matrix(1.9211538461538462 0 0 1.9211538461538462 608.0128578037259 389.06222966862106)" id="text-logo"  >
<g style=""  paint-order="stroke"   >
		<g transform="matrix(1 0 0 1 0 0)" id="text-logo-path-0"  >
<path style="stroke: rgb(255,255,255); stroke-width: 0; stroke-dasharray: none; stroke-linecap: butt; stroke-dashoffset: 0; stroke-linejoin: miter; stroke-miterlimit: 4; fill: rgb(0,0,0); fill-rule: nonzero; opacity: 1;"  paint-order="stroke"  transform=" translate(-83.645, 6.925)" d="M 8.14 -13.57 L 8.14 -8.76 L 4.56 -8.76 L 4.56 -13.57 C 4.56 -13.73 4.42 -13.87 4.26 -13.87 L 1.29 -13.87 C 1.13 -13.87 0.99 -13.73 0.99 -13.57 L 0.99 -0.28 C 0.99 -0.12 1.13 0.02 1.29 0.02 L 4.26 0.02 C 4.42 0.02 4.56 -0.12 4.56 -0.28 L 4.56 -5.39 L 8.14 -5.39 L 8.14 -0.28 C 8.14 -0.12 8.28 0.02 8.44 0.02 L 11.41 0.02 C 11.57 0.02 11.71 -0.12 11.71 -0.28 L 11.71 -13.57 C 11.71 -13.73 11.57 -13.87 11.41 -13.87 L 8.44 -13.87 C 8.28 -13.87 8.14 -13.73 8.14 -13.57 Z M 26.88 -13.87 L 18.54 -13.87 C 18.38 -13.87 18.24 -13.73 18.24 -13.57 L 18.24 -0.28 C 18.24 -0.12 18.38 0.02 18.54 0.02 L 26.88 0.02 C 27.04 0.02 27.18 -0.12 27.18 -0.28 L 27.18 -3.05 C 27.18 -3.21 27.04 -3.35 26.88 -3.35 L 21.81 -3.35 L 21.81 -5.23 L 25.08 -5.23 C 25.24 -5.23 25.4 -5.39 25.4 -5.55 L 25.4 -8.3 C 25.4 -8.46 25.24 -8.62 25.08 -8.62 L 21.81 -8.62 L 21.81 -10.5 L 26.88 -10.5 C 27.04 -10.5 27.18 -10.64 27.18 -10.8 L 27.18 -13.57 C 27.18 -13.73 27.04 -13.87 26.88 -13.87 Z M 40.87 -6.62 L 40.87 -3.37 L 37.28 -3.37 L 37.28 -13.57 C 37.28 -13.73 37.14 -13.87 36.99 -13.87 L 34.01 -13.87 C 33.86 -13.87 33.72 -13.73 33.72 -13.57 L 33.72 -0.28 C 33.72 -0.12 33.86 0.02 34.01 0.02 L 37.28 0.02 L 37.28 0 L 44.14 0 C 44.3 0 44.43 -0.14 44.43 -0.3 L 44.43 -6.62 C 44.43 -6.78 44.3 -6.93 44.14 -6.93 L 41.17 -6.93 C 41.01 -6.93 40.87 -6.78 40.87 -6.62 Z M 58.12 -13.57 L 58.12 -7.09 L 56.32 -3.53 L 54.54 -7.09 L 54.54 -13.57 C 54.54 -13.73 54.4 -13.87 54.24 -13.87 L 51.27 -13.87 C 51.11 -13.87 50.97 -13.73 50.97 -13.57 L 50.97 -7.15 C 50.97 -7.11 50.99 -7.07 51.01 -7.03 L 54.46 -0.14 C 54.52 -0.04 54.62 0.02 54.73 0.02 L 57.92 0.02 C 58.04 0.02 58.14 -0.04 58.2 -0.14 L 61.65 -7.03 C 61.67 -7.07 61.69 -7.11 61.69 -7.15 L 61.69 -13.57 C 61.69 -13.73 61.55 -13.87 61.39 -13.87 L 58.42 -13.87 C 58.26 -13.87 58.12 -13.73 58.12 -13.57 Z M 76.86 -13.87 L 68.52 -13.87 C 68.36 -13.87 68.23 -13.73 68.23 -13.57 L 68.23 -0.28 C 68.23 -0.12 68.36 0.02 68.52 0.02 L 76.86 0.02 C 77.02 0.02 77.16 -0.12 77.16 -0.28 L 77.16 -3.05 C 77.16 -3.21 77.02 -3.35 76.86 -3.35 L 71.79 -3.35 L 71.79 -5.23 L 75.06 -5.23 C 75.22 -5.23 75.38 -5.39 75.38 -5.55 L 75.38 -8.3 C 75.38 -8.46 75.22 -8.62 75.06 -8.62 L 71.79 -8.62 L 71.79 -10.5 L 76.86 -10.5 C 77.02 -10.5 77.16 -10.64 77.16 -10.8 L 77.16 -13.57 C 77.16 -13.73 77.02 -13.87 76.86 -13.87 Z M 83.99 -10.5 L 87.26 -10.5 L 87.26 -0.28 C 87.26 -0.12 87.4 0.02 87.56 0.02 L 90.53 0.02 C 90.69 0.02 90.85 -0.12 90.85 -0.28 L 90.85 -10.5 L 94.12 -10.5 C 94.28 -10.5 94.41 -10.64 94.41 -10.8 L 94.41 -13.57 C 94.41 -13.73 94.28 -13.87 94.12 -13.87 L 83.99 -13.87 C 83.84 -13.87 83.7 -13.73 83.7 -13.57 L 83.7 -10.8 C 83.7 -10.64 83.84 -10.5 83.99 -10.5 Z M 107.79 -13.87 L 101.25 -13.87 C 101.09 -13.87 100.95 -13.73 100.95 -13.57 L 100.95 -10.8 C 100.95 -10.64 101.09 -10.5 101.25 -10.5 L 102.73 -10.5 L 102.73 -3.37 L 101.25 -3.37 C 101.09 -3.37 100.95 -3.23 100.95 -3.07 L 100.95 -0.3 C 100.95 -0.14 101.09 0 101.25 0 L 102.73 0 L 102.73 0.02 L 106.3 0.02 L 106.3 0 L 107.79 0 C 107.94 0 108.1 -0.14 108.1 -0.3 L 108.1 -3.07 C 108.1 -3.23 107.94 -3.37 107.79 -3.37 L 106.3 -3.37 L 106.3 -10.5 L 107.79 -10.5 C 107.94 -10.5 108.1 -10.64 108.1 -10.8 L 108.1 -13.57 C 108.1 -13.73 107.94 -13.87 107.79 -13.87 Z M 124.17 -13.87 L 116.42 -13.87 C 115.43 -13.87 114.64 -13.05 114.64 -12.06 L 114.64 -1.78 C 114.64 -0.79 115.45 0.02 116.44 0.02 L 118.21 0.02 L 118.21 0 L 124.17 0 C 124.33 0 124.47 -0.14 124.47 -0.3 L 124.47 -3.07 C 124.47 -3.23 124.33 -3.37 124.17 -3.37 L 118.5 -3.37 C 118.34 -3.37 118.21 -3.51 118.21 -3.66 L 118.21 -10.2 C 118.21 -10.36 118.34 -10.5 118.5 -10.5 L 124.17 -10.5 C 124.33 -10.5 124.47 -10.64 124.47 -10.8 L 124.47 -13.57 C 124.47 -13.73 124.33 -13.87 124.17 -13.87 Z M 148.73 -13.87 L 142.2 -13.87 C 142.04 -13.87 141.9 -13.73 141.9 -13.57 L 141.9 -10.8 C 141.9 -10.64 142.04 -10.5 142.2 -10.5 L 143.68 -10.5 L 143.68 -3.37 L 142.2 -3.37 C 142.04 -3.37 141.9 -3.23 141.9 -3.07 L 141.9 -0.3 C 141.9 -0.14 142.04 0 142.2 0 L 143.68 0 L 143.68 0.02 L 147.25 0.02 L 147.25 0 L 148.73 0 C 148.89 0 149.05 -0.14 149.05 -0.3 L 149.05 -3.07 C 149.05 -3.23 148.89 -3.37 148.73 -3.37 L 147.25 -3.37 L 147.25 -10.5 L 148.73 -10.5 C 148.89 -10.5 149.05 -10.64 149.05 -10.8 L 149.05 -13.57 C 149.05 -13.73 148.89 -13.87 148.73 -13.87 Z M 155.88 -10.5 L 159.15 -10.5 L 159.15 -0.28 C 159.15 -0.12 159.29 0.02 159.45 0.02 L 162.42 0.02 C 162.58 0.02 162.74 -0.12 162.74 -0.28 L 162.74 -10.5 L 166.01 -10.5 C 166.17 -10.5 166.3 -10.64 166.3 -10.8 L 166.3 -13.57 C 166.3 -13.73 166.17 -13.87 166.01 -13.87 L 155.88 -13.87 C 155.73 -13.87 155.59 -13.73 155.59 -13.57 L 155.59 -10.8 C 155.59 -10.64 155.73 -10.5 155.88 -10.5 Z" stroke-linecap="round" />
</g>
</g>
</g>
<g transform="matrix(1.9211538461538462 0 0 1.9211538461538462 677.4865648115431 420.4514199359278)" id="tagline-51dcf85a-db55-4e61-a7f6-a50824d9b7fb-logo"  >
<g style=""  paint-order="stroke"   >
		<g transform="matrix(1 0 0 1 0 0)" id="tagline-51dcf85a-db55-4e61-a7f6-a50824d9b7fb-logo-path-0"  >
<linearGradient id="SVGID_231205" gradientUnits="userSpaceOnUse" gradientTransform="matrix(1 0 0 1 0.28000000000000114 -5.97)"  x1="-0.33396192580718775" y1="-1.421039772898098" x2="-0.33396192580718775" y2="7.578960227101902">
<stop offset="0%" style="stop-color:rgb(245,81,95);stop-opacity: 1"/>
<stop offset="100%" style="stop-color:rgb(159,4,27);stop-opacity: 1"/>
</linearGradient>
<path style="stroke: none; stroke-width: 0; stroke-dasharray: none; stroke-linecap: butt; stroke-dashoffset: 0; stroke-linejoin: miter; stroke-miterlimit: 4; fill: url(#SVGID_231205); fill-rule: nonzero; opacity: 1;"  paint-order="stroke"  transform=" translate(-119.855, 2.945)" d="M 1.29 0 L 1.29 -5.88 L 0.28 -5.88 L 0.28 0 Z M 6.38 0 L 6.38 -2.44 L 9.65 -2.44 L 9.65 0 L 10.66 0 L 10.66 -5.88 L 9.65 -5.88 L 9.65 -3.44 L 6.38 -3.44 L 6.38 -5.88 L 5.37 -5.88 L 5.37 0 Z M 15.75 0 L 15.75 -2.02 L 17.23 -2.02 L 18.37 0 L 19.53 0 L 18.33 -2.13 C 19.06 -2.35 19.46 -2.96 19.46 -3.95 C 19.46 -5.2 18.84 -5.88 17.53 -5.88 L 14.74 -5.88 L 14.74 0 Z M 15.75 -3.02 L 15.75 -4.87 L 17.53 -4.87 C 18.32 -4.87 18.45 -4.74 18.45 -3.95 C 18.45 -3.15 18.32 -3.02 17.53 -3.02 Z M 29.83 0 L 29.83 -5.88 L 28.82 -5.88 L 28.82 0 Z M 36.77 0 L 36.77 -4.87 L 38.61 -4.87 L 38.61 -5.88 L 33.91 -5.88 L 33.91 -4.87 L 35.76 -4.87 L 35.76 0 Z M 42.7 -3.53 L 42.7 -2.52 L 45.39 -2.52 L 45.39 -3.53 Z M 50.48 0 L 50.48 -2.02 L 52.25 -2.02 C 53.5 -2.02 54.18 -2.64 54.18 -3.95 C 54.18 -5.2 53.56 -5.88 52.25 -5.88 L 49.47 -5.88 L 49.47 0 Z M 50.48 -3.02 L 50.48 -4.87 L 52.25 -4.87 C 53.05 -4.87 53.17 -4.74 53.17 -3.95 C 53.17 -3.15 53.04 -3.02 52.25 -3.02 Z M 58.42 0 L 58.87 -1.18 L 61.51 -1.18 L 61.96 0 L 63.04 0 L 60.77 -5.88 L 59.61 -5.88 L 57.34 0 Z M 59.26 -2.18 L 60.19 -4.6 L 61.12 -2.18 Z M 68.13 0 L 68.13 -2.02 L 69.61 -2.02 L 70.74 0 L 71.9 0 L 70.71 -2.13 C 71.44 -2.35 71.83 -2.96 71.83 -3.95 C 71.83 -5.2 71.21 -5.88 69.9 -5.88 L 67.12 -5.88 L 67.12 0 Z M 68.13 -3.02 L 68.13 -4.87 L 69.9 -4.87 C 70.7 -4.87 70.83 -4.74 70.83 -3.95 C 70.83 -3.15 70.69 -3.02 69.9 -3.02 Z M 78.84 0 L 78.84 -4.87 L 80.69 -4.87 L 80.69 -5.88 L 75.98 -5.88 L 75.98 -4.87 L 77.83 -4.87 L 77.83 0 Z M 85.78 0 L 85.78 -4.48 L 88.79 0 L 90.06 0 L 90.06 -5.88 L 89.06 -5.88 L 89.06 -1.4 L 86.05 -5.88 L 84.77 -5.88 L 84.77 0 Z M 94.15 0 L 98.52 0 L 98.52 -1.01 L 95.16 -1.01 L 95.16 -2.44 L 97.68 -2.44 L 97.68 -3.44 L 95.16 -3.44 L 95.16 -4.87 L 98.52 -4.87 L 98.52 -5.88 L 94.15 -5.88 Z M 103.61 0 L 103.61 -2.02 L 105.09 -2.02 L 106.22 0 L 107.38 0 L 106.19 -2.13 C 106.92 -2.35 107.31 -2.96 107.31 -3.95 C 107.31 -5.2 106.69 -5.88 105.38 -5.88 L 102.6 -5.88 L 102.6 0 Z M 103.61 -3.02 L 103.61 -4.87 L 105.38 -4.87 C 106.18 -4.87 106.3 -4.74 106.3 -3.95 C 106.3 -3.15 106.17 -3.02 105.38 -3.02 Z M 120.75 -5.88 L 120.75 -2.52 C 120.75 -1.17 120.5 -0.92 119.21 -0.92 C 117.92 -0.92 117.68 -1.18 117.68 -2.52 L 117.68 -5.88 L 116.67 -5.88 L 116.67 -2.52 C 116.67 -0.72 117.39 0.08 119.21 0.08 C 120.97 0.08 121.76 -0.66 121.76 -2.52 L 121.76 -5.88 Z M 126.85 0 L 126.85 -4.48 L 129.85 0 L 131.13 0 L 131.13 -5.88 L 130.12 -5.88 L 130.12 -1.4 L 127.12 -5.88 L 125.84 -5.88 L 125.84 0 Z M 137.57 -1.01 L 136.22 -1.01 L 136.22 -4.87 L 137.57 -4.87 C 139.17 -4.87 139.5 -4.54 139.5 -2.94 C 139.5 -1.34 139.16 -1.01 137.57 -1.01 Z M 135.21 0 L 137.57 0 C 139.64 0 140.51 -0.82 140.51 -2.94 C 140.51 -5.03 139.67 -5.88 137.57 -5.88 L 135.21 -5.88 Z M 151.82 0 L 152.96 0 L 154.32 -4.33 L 155.68 0 L 156.82 0 L 158.84 -5.88 L 157.78 -5.88 L 156.28 -1.49 L 154.89 -5.88 L 153.75 -5.88 L 152.36 -1.49 L 150.86 -5.88 L 149.8 -5.88 Z M 162.92 0 L 167.29 0 L 167.29 -1.01 L 163.93 -1.01 L 163.93 -2.44 L 166.45 -2.44 L 166.45 -3.44 L 163.93 -3.44 L 163.93 -4.87 L 167.29 -4.87 L 167.29 -5.88 L 162.92 -5.88 Z M 171.38 0 L 174.15 0 C 175.34 0 176.04 -0.75 176.04 -1.89 C 176.04 -2.59 175.79 -3.11 175.36 -3.43 C 175.51 -3.67 175.59 -3.98 175.59 -4.33 C 175.59 -5.3 174.97 -5.88 174.05 -5.88 L 171.38 -5.88 Z M 172.38 -1.01 L 172.38 -2.78 L 174.15 -2.78 C 174.82 -2.78 175.03 -2.59 175.03 -1.89 C 175.03 -1.22 174.84 -1.01 174.15 -1.01 Z M 172.38 -3.79 L 172.38 -4.87 L 174.05 -4.87 C 174.5 -4.87 174.58 -4.8 174.58 -4.33 C 174.58 -3.87 174.51 -3.79 174.05 -3.79 Z M 180.86 0 L 181.31 -1.18 L 183.95 -1.18 L 184.41 0 L 185.48 0 L 183.21 -5.88 L 182.05 -5.88 L 179.78 0 Z M 181.7 -2.18 L 182.63 -4.6 L 183.57 -2.18 Z M 192.09 -2.44 L 193.77 -2.44 C 193.72 -1.13 193.45 -0.92 192.09 -0.92 C 190.48 -0.92 190.15 -1.26 190.15 -2.94 C 190.15 -4.63 190.49 -4.96 192.09 -4.96 C 192.9 -4.96 193.3 -4.86 193.6 -4.6 L 194.27 -5.33 C 193.77 -5.8 193.05 -5.97 192.09 -5.97 C 190.01 -5.97 189.14 -5.14 189.14 -2.94 C 189.14 -0.78 189.98 0.08 192.09 0.08 C 194.4 0.08 194.86 -0.96 194.77 -3.44 L 192.09 -3.44 Z M 198.86 0 L 203.23 0 L 203.23 -1.01 L 199.87 -1.01 L 199.87 -2.44 L 202.39 -2.44 L 202.39 -3.44 L 199.87 -3.44 L 199.87 -4.87 L 203.23 -4.87 L 203.23 -5.88 L 198.86 -5.88 Z M 208.33 0 L 208.33 -4.48 L 211.33 0 L 212.61 0 L 212.61 -5.88 L 211.6 -5.88 L 211.6 -1.4 L 208.59 -5.88 L 207.32 -5.88 L 207.32 0 Z M 219.55 0 L 219.55 -4.87 L 221.4 -4.87 L 221.4 -5.88 L 216.69 -5.88 L 216.69 -4.87 L 218.54 -4.87 L 218.54 0 Z M 229.56 -5.88 L 229.56 -2.52 C 229.56 -1.17 229.3 -0.92 228.02 -0.92 C 226.72 -0.92 226.49 -1.18 226.49 -2.52 L 226.49 -5.88 L 225.48 -5.88 L 225.48 -2.52 C 225.48 -0.72 226.2 0.08 228.02 0.08 C 229.78 0.08 230.56 -0.66 230.56 -2.52 L 230.56 -5.88 Z M 235.66 0 L 235.66 -2.02 L 237.13 -2.02 L 238.27 0 L 239.43 0 L 238.23 -2.13 C 238.97 -2.35 239.36 -2.96 239.36 -3.95 C 239.36 -5.2 238.74 -5.88 237.43 -5.88 L 234.65 -5.88 L 234.65 0 Z M 235.66 -3.02 L 235.66 -4.87 L 237.43 -4.87 C 238.23 -4.87 238.35 -4.74 238.35 -3.95 C 238.35 -3.15 238.22 -3.02 237.43 -3.02 Z" stroke-linecap="round" />
</g>
</g>
</g>
</svg>